<?xml version="1.0" encoding="UTF-8" standalone="no"?>
<svg viewBox="0 0 469 190" version="1.1" xmlns="http://www.w3.org/2000/svg" xmlns:xlink="http://www.w3.org/1999/xlink" xmlns:sketch="http://www.bohemiancoding.com/sketch/ns">
    <defs>
        <path id="path-1" d="M50.193,121.564 L-0.36,121.564 L-0.36,0.058 L50.193,121.564"></path>
    </defs>
    <g id="Page-1" stroke="none" stroke-width="1" fill="none" fill-rule="evenodd" sketch:type="MSPage">
        <g id="E|VEST_Florida_Logo" sketch:type="MSLayerGroup">
            <path d="M0,15.058 L468.657,15.058 L468.657,136.564 L0,136.564 L0,15.058 Z" id="Fill-1" fill="#3B3B3A" sketch:type="MSShapeGroup"></path>
            <g id="Group-4" transform="translate(118.000000, 15.000000)">
                <mask id="mask-2" sketch:name="Clip 3" fill="white">
                    <use xlink:href="#path-1"></use>
                </mask>
                <g id="Clip-3"></g>
                <path d="M50.193,121.564 L-0.36,121.564 L-0.36,0.058 L50.193,121.564" id="Fill-2" sketch:type="MSShapeGroup" mask="url(#mask-2)"></path>
            </g>
            <path d="M108.967,0.04 L117.645,0.04 L117.645,151.599 L108.967,151.599 L108.967,0.04 Z" id="Fill-5" fill="#0E8F6C" sketch:type="MSShapeGroup"></path>
            <path d="M468.383,136.564 L236.917,136.564 L227.133,190 L458.6,190 L468.383,136.564" id="Fill-7" fill="#0E8F6C" sketch:type="MSShapeGroup"></path>
            <path d="M260.079,153.509 L275.186,153.509 L274.346,158.095 L264.471,158.095 L263.883,161.306 L272.813,161.306 L272.018,165.65 L263.088,165.65 L261.854,172.394 L256.62,172.394 L260.079,153.509" id="Fill-8" fill="#FFFFFF" sketch:type="MSShapeGroup"></path>
            <path d="M286.729,153.509 L291.963,153.509 L289.346,167.806 L298.491,167.806 L297.651,172.394 L283.272,172.394 L286.729,153.509" id="Fill-9" fill="#FFFFFF" sketch:type="MSShapeGroup"></path>
            <path d="M324.051,163.005 L324.061,162.953 C324.561,160.226 323.026,157.853 320.139,157.853 C317.28,157.853 314.94,160.173 314.44,162.898 L314.432,162.953 C313.934,165.675 315.467,168.05 318.325,168.05 C321.213,168.05 323.553,165.73 324.051,163.005 L324.051,163.005 Z M309.053,163.005 L309.063,162.953 C310.055,157.529 315.231,153.132 321.059,153.132 C326.887,153.132 330.407,157.474 329.415,162.898 L329.403,162.953 C328.411,168.375 323.237,172.771 317.409,172.771 C311.581,172.771 308.061,168.429 309.053,163.005 L309.053,163.005 Z" id="Fill-10" fill="#FFFFFF" sketch:type="MSShapeGroup"></path>
            <path d="M350.053,162.574 C351.834,162.574 353.018,161.711 353.27,160.336 L353.28,160.281 C353.551,158.796 352.61,158.043 350.856,158.043 L347.432,158.043 L346.6,162.574 L350.053,162.574 L350.053,162.574 Z M343.028,153.509 L351.956,153.509 C354.844,153.509 356.7,154.263 357.733,155.56 C358.641,156.638 358.94,158.095 358.6,159.957 L358.59,160.011 C358.061,162.898 356.174,164.814 353.641,165.81 L356.942,172.394 L350.901,172.394 L348.141,166.675 L345.85,166.675 L344.803,172.394 L339.569,172.394 L343.028,153.509 L343.028,153.509 Z" id="Fill-11" fill="#FFFFFF" sketch:type="MSShapeGroup"></path>
            <path d="M371.702,153.509 L376.963,153.509 L373.504,172.394 L368.245,172.394 L371.702,153.509" id="Fill-12" fill="#FFFFFF" sketch:type="MSShapeGroup"></path>
            <path d="M394.344,167.754 C397.473,167.754 399.866,166.027 400.424,162.98 L400.434,162.925 C400.989,159.904 399.233,158.15 396.102,158.15 L393.971,158.15 L392.213,167.754 L394.344,167.754 L394.344,167.754 Z M389.588,153.509 L396.872,153.509 C403.616,153.509 406.815,157.394 405.819,162.843 L405.809,162.898 C404.809,168.347 400.104,172.394 393.305,172.394 L386.129,172.394 L389.588,153.509 L389.588,153.509 Z" id="Fill-13" fill="#FFFFFF" sketch:type="MSShapeGroup"></path>
            <path d="M427.065,164.949 L425.944,159.58 L422.831,164.949 L427.065,164.949 L427.065,164.949 Z M424.6,153.375 L429.645,153.375 L434.2,172.394 L428.588,172.394 L427.831,169.021 L420.547,169.021 L418.581,172.394 L413.077,172.394 L424.6,153.375 L424.6,153.375 Z" id="Fill-14" fill="#FFFFFF" sketch:type="MSShapeGroup"></path>
            <path d="M77.44,52.044 L38.447,52.044 L38.447,69.966 L73.01,69.966 L73.01,80.798 L38.447,80.798 L38.447,99.31 L77.932,99.31 L77.932,110.14 L26.335,110.14 L26.335,41.212 L77.44,41.212 L77.44,52.044" id="Fill-15" fill="#FFFFFF" sketch:type="MSShapeGroup"></path>
            <path d="M198.366,41.212 L211.461,41.212 L182.809,110.632 L172.172,110.632 L143.518,41.212 L156.911,41.212 L177.688,94.189 L198.366,41.212" id="Fill-16" fill="#FFFFFF" sketch:type="MSShapeGroup"></path>
            <path d="M288.174,52.044 L249.18,52.044 L249.18,69.966 L283.743,69.966 L283.743,80.798 L249.18,80.798 L249.18,99.31 L288.667,99.31 L288.667,110.14 L237.069,110.14 L237.069,41.212 L288.174,41.212 L288.174,52.044" id="Fill-17" fill="#FFFFFF" sketch:type="MSShapeGroup"></path>
            <path d="M343.418,70.162 C357.993,73.707 365.575,78.927 365.575,90.447 C365.575,103.445 355.434,111.127 340.956,111.127 C330.422,111.127 320.477,107.482 312.208,100.097 L319.493,91.433 C326.088,97.142 332.684,100.392 341.252,100.392 C348.739,100.392 353.463,96.945 353.463,91.628 C353.463,86.607 350.706,83.949 337.907,80.994 C323.233,77.449 314.961,73.117 314.961,60.316 C314.961,48.304 324.809,40.228 338.497,40.228 C348.54,40.228 356.516,43.281 363.506,48.894 L357.008,58.05 C350.803,53.423 344.602,50.962 338.299,50.962 C331.209,50.962 327.075,54.605 327.075,59.234 C327.075,64.65 330.225,67.011 343.418,70.162" id="Fill-18" fill="#FFFFFF" sketch:type="MSShapeGroup"></path>
            <path d="M421.299,110.14 L409.088,110.14 L409.088,52.439 L387.229,52.439 L387.229,41.212 L443.159,41.212 L443.159,52.439 L421.299,52.439 L421.299,110.14" id="Fill-19" fill="#FFFFFF" sketch:type="MSShapeGroup"></path>
        </g>
    </g>
</svg>